<?xml version="1.0" encoding="UTF-8" standalone="no"?>
<!-- Created with Inkscape (http://www.inkscape.org/) -->

<svg
   width="500"
   height="500"
   viewBox="0 0 132.29167 132.29167"
   version="1.1"
   id="svg1"
   inkscape:version="1.2.2 (b0a8486541, 2022-12-01)"
   sodipodi:docname="logo2.svg"
   inkscape:export-filename="logo.png"
   inkscape:export-xdpi="48"
   inkscape:export-ydpi="48"
   xmlns:inkscape="http://www.inkscape.org/namespaces/inkscape"
   xmlns:sodipodi="http://sodipodi.sourceforge.net/DTD/sodipodi-0.dtd"
   xmlns="http://www.w3.org/2000/svg"
   xmlns:svg="http://www.w3.org/2000/svg">
  <sodipodi:namedview
     id="namedview1"
     pagecolor="#505050"
     bordercolor="#eeeeee"
     borderopacity="1"
     inkscape:showpageshadow="0"
     inkscape:pageopacity="0"
     inkscape:pagecheckerboard="0"
     inkscape:deskcolor="#505050"
     inkscape:document-units="mm"
     inkscape:zoom="0.1767767"
     inkscape:cx="432.74934"
     inkscape:cy="288.49956"
     inkscape:window-width="1920"
     inkscape:window-height="1008"
     inkscape:window-x="0"
     inkscape:window-y="0"
     inkscape:window-maximized="1"
     inkscape:current-layer="g1"
     showgrid="false" />
  <defs
     id="defs1" />
  <g
     inkscape:label="Camada 1"
     inkscape:groupmode="layer"
     id="layer1">
    <rect
       style="fill:#004242;fill-opacity:1;stroke-width:3.96787"
       id="rect6"
       width="132.29167"
       height="132.29167"
       x="0"
       y="0" />
    <g
       id="g1"
       transform="translate(-2.2489655)">
      <g
         id="g2"
         transform="translate(107.32429,-55.64077)"
         style="fill:#ffffff">
        <path
           style="font-weight:bold;font-size:4.9389px;font-family:Sans;-inkscape-font-specification:'Sans Bold';letter-spacing:0px;fill:#ffffff;fill-opacity:1;stroke-width:4.38358"
           d="m -50.721724,102.06629 q -7.118951,0 -10.883007,5.31877 -3.764039,5.31875 -3.764039,14.56521 0,9.32828 3.436741,14.48339 3.518553,5.07329 11.210305,5.07329 3.51857,0 7.118951,-0.81829 3.600399,-0.81829 7.773582,-2.29116 v 10.39204 q -3.845885,1.55473 -7.609924,2.29115 -3.764039,0.73645 -8.428195,0.73645 -9.082807,0 -14.892532,-3.68222 -5.809708,-3.76405 -8.591835,-10.47386 -2.782128,-6.79165 -2.782128,-15.79263 0,-8.83732 3.191255,-15.62898 3.191271,-6.791648 9.246465,-10.637516 6.13704,-3.845868 14.974361,-3.845868 4.33684,0 8.673664,1.145503 4.418669,1.063824 8.428195,2.945785 l -4.009526,10.064716 q -3.273083,-1.55473 -6.627995,-2.70028 -3.273083,-1.14567 -6.464338,-1.14567 z"
           id="text2"
           aria-label="C" />
        <path
           style="font-weight:bold;font-size:4.9389px;font-family:Sans;-inkscape-font-specification:'Sans Bold';letter-spacing:0px;fill:#ffffff;fill-opacity:1;stroke-width:4.38358"
           d="m -65.503401,129.44984 c -2.5798,-7.07226 -2.921115,-12.78352 -1.023894,-17.13383 1.827271,-4.38282 5.40575,-7.54634 10.735602,-9.49051 3.228599,-1.17765 6.469656,-1.60527 9.723107,-1.28219 3.253483,0.32307 6.295942,1.73913 9.127475,4.2483 2.812844,2.45801 5.191361,6.35191 7.135535,11.68173 l 1.822665,4.99672 19.5256069,-7.12245 4.2342023,11.60774 -44.3020862,16.16027 c -5.478997,1.9986 -11.848898,0.39581 -13.510656,-4.15986 z m 9.756475,-2.8622 1.934846,5.30421 16.296941,-5.94471 -1.402139,-3.84363 c -1.196366,-3.27989 -2.781017,-5.63427 -4.753953,-7.0631 -2.042803,-1.46129 -4.524836,-1.65927 -7.445985,-0.59363 -5.329819,1.94418 -6.873084,5.99116 -4.62981,12.14096 z"
           id="text1"
           aria-label="P"
           sodipodi:nodetypes="scsscscccssssccscss" />
      </g>
      <g
         id="g5"
         transform="matrix(17.7729,0,0,17.661824,-1283.549,-1087.3611)">
        <circle
           style="fill:#0b1316;fill-opacity:1;stroke-width:0.264583"
           id="path3"
           cx="78.267059"
           cy="65.310745"
           r="0.86816406" />
        <path
           style="fill:#0b1316;fill-opacity:1;stroke-width:0.264583"
           d="M 76.435644,67.33439 78.6784,66.075552 78.6877,64.552131 76.455587,63.296604 Z"
           id="path5"
           sodipodi:nodetypes="ccccc" />
        <circle
           style="fill:#0b1316;fill-opacity:1;stroke-width:0.289388"
           id="path2"
           cx="75.3153"
           cy="65.310745"
           r="2.315104" />
      </g>
      <text
         xml:space="preserve"
         style="font-size:42.3333px;fill:#004242;fill-opacity:1;stroke-width:0.264583"
         x="22.584698"
         y="81.282883"
         id="text1192"><tspan
           sodipodi:role="line"
           id="tspan1190"
           style="font-style:normal;font-variant:normal;font-weight:bold;font-stretch:normal;font-size:42.3333px;font-family:monospace;-inkscape-font-specification:'monospace Bold';fill:#b3b3b3;stroke-width:0.264583"
           x="22.584698"
           y="81.282883">flx</tspan></text>
    </g>
  </g>
</svg>
